<mxfile host="app.diagrams.net" modified="2023-09-09T14:06:11.311Z" agent="Mozilla/5.0 (Windows NT 10.0; Win64; x64) AppleWebKit/537.36 (KHTML, like Gecko) Chrome/116.0.0.0 Safari/537.36" etag="J5qPeLjzYor1kjxlNJT_" version="21.7.4" type="github">
  <diagram name="第 1 页" id="-9MVbSNlWqkNV0EaQtI_">
    <mxGraphModel dx="1050" dy="542" grid="1" gridSize="10" guides="1" tooltips="1" connect="1" arrows="1" fold="1" page="1" pageScale="1" pageWidth="827" pageHeight="1169" math="0" shadow="0">
      <root>
        <mxCell id="0" />
        <mxCell id="1" parent="0" />
        <mxCell id="x_QW8Wpu480WUExeyG0p-1" value="&lt;font style=&quot;font-size: 20px;&quot;&gt;&lt;b style=&quot;font-size: 17px;&quot;&gt;Training Data&lt;/b&gt;&lt;/font&gt;" style="rounded=0;whiteSpace=wrap;html=1;fillColor=#dae8fc;strokeColor=#6c8ebf;" vertex="1" parent="1">
          <mxGeometry x="205.07" y="20" width="390" height="60" as="geometry" />
        </mxCell>
        <mxCell id="x_QW8Wpu480WUExeyG0p-2" value="" style="shape=curlyBracket;whiteSpace=wrap;html=1;rounded=1;labelPosition=left;verticalLabelPosition=middle;align=right;verticalAlign=middle;rotation=90;" vertex="1" parent="1">
          <mxGeometry x="387.53" y="-95.65" width="25.07" height="466.25" as="geometry" />
        </mxCell>
        <mxCell id="x_QW8Wpu480WUExeyG0p-3" value="&lt;font size=&quot;1&quot; style=&quot;&quot;&gt;&lt;b style=&quot;font-size: 14px;&quot;&gt;Classifier &lt;br&gt;1&lt;/b&gt;&lt;/font&gt;" style="rounded=1;whiteSpace=wrap;html=1;fillColor=#ffe6cc;strokeColor=#d79b00;" vertex="1" parent="1">
          <mxGeometry x="140" y="160" width="100" height="40" as="geometry" />
        </mxCell>
        <mxCell id="x_QW8Wpu480WUExeyG0p-5" value="&lt;font size=&quot;1&quot; style=&quot;&quot;&gt;&lt;b style=&quot;font-size: 14px;&quot;&gt;Classifier &lt;br&gt;2&lt;/b&gt;&lt;/font&gt;" style="rounded=1;whiteSpace=wrap;html=1;fillColor=#ffe6cc;strokeColor=#d79b00;" vertex="1" parent="1">
          <mxGeometry x="260" y="160" width="100" height="40" as="geometry" />
        </mxCell>
        <mxCell id="x_QW8Wpu480WUExeyG0p-6" value="&lt;font size=&quot;1&quot; style=&quot;&quot;&gt;&lt;b style=&quot;font-size: 14px;&quot;&gt;Classifier &lt;br&gt;k&lt;/b&gt;&lt;/font&gt;" style="rounded=1;whiteSpace=wrap;html=1;fillColor=#ffe6cc;strokeColor=#d79b00;" vertex="1" parent="1">
          <mxGeometry x="550" y="160" width="100" height="40" as="geometry" />
        </mxCell>
        <mxCell id="x_QW8Wpu480WUExeyG0p-7" value="&lt;b&gt;&lt;font style=&quot;font-size: 16px;&quot;&gt;......&lt;/font&gt;&lt;/b&gt;" style="text;html=1;align=center;verticalAlign=middle;resizable=0;points=[];autosize=1;strokeColor=none;fillColor=none;" vertex="1" parent="1">
          <mxGeometry x="490" y="160" width="50" height="30" as="geometry" />
        </mxCell>
        <mxCell id="x_QW8Wpu480WUExeyG0p-8" value="&lt;font size=&quot;1&quot; style=&quot;&quot;&gt;&lt;b style=&quot;font-size: 14px;&quot;&gt;Classifier &lt;br&gt;3&lt;/b&gt;&lt;/font&gt;" style="rounded=1;whiteSpace=wrap;html=1;fillColor=#ffe6cc;strokeColor=#d79b00;" vertex="1" parent="1">
          <mxGeometry x="380" y="160" width="100" height="40" as="geometry" />
        </mxCell>
        <mxCell id="x_QW8Wpu480WUExeyG0p-12" value="" style="endArrow=classic;html=1;rounded=0;exitX=0;exitY=0.5;exitDx=0;exitDy=0;" edge="1" parent="1" source="x_QW8Wpu480WUExeyG0p-13">
          <mxGeometry width="50" height="50" relative="1" as="geometry">
            <mxPoint x="650" y="230" as="sourcePoint" />
            <mxPoint x="600" y="230" as="targetPoint" />
          </mxGeometry>
        </mxCell>
        <mxCell id="x_QW8Wpu480WUExeyG0p-13" value="&lt;font style=&quot;font-size: 17px;&quot;&gt;&lt;b&gt;test data&lt;/b&gt;&lt;/font&gt;" style="rounded=0;whiteSpace=wrap;html=1;fillColor=#fad9d5;strokeColor=#ae4132;" vertex="1" parent="1">
          <mxGeometry x="670" y="200" width="120" height="60" as="geometry" />
        </mxCell>
        <mxCell id="x_QW8Wpu480WUExeyG0p-20" value="" style="endArrow=classic;html=1;rounded=0;exitX=0.5;exitY=1;exitDx=0;exitDy=0;" edge="1" parent="1" source="x_QW8Wpu480WUExeyG0p-3">
          <mxGeometry width="50" height="50" relative="1" as="geometry">
            <mxPoint x="390" y="270" as="sourcePoint" />
            <mxPoint x="190" y="260" as="targetPoint" />
          </mxGeometry>
        </mxCell>
        <mxCell id="x_QW8Wpu480WUExeyG0p-21" value="&lt;b&gt;R1&lt;/b&gt;" style="ellipse;whiteSpace=wrap;html=1;aspect=fixed;fillColor=#b0e3e6;strokeColor=#0e8088;" vertex="1" parent="1">
          <mxGeometry x="170" y="260" width="40" height="40" as="geometry" />
        </mxCell>
        <mxCell id="x_QW8Wpu480WUExeyG0p-22" value="&lt;b&gt;R3&lt;/b&gt;" style="ellipse;whiteSpace=wrap;html=1;aspect=fixed;fillColor=#b0e3e6;strokeColor=#0e8088;" vertex="1" parent="1">
          <mxGeometry x="415.07" y="260" width="40" height="40" as="geometry" />
        </mxCell>
        <mxCell id="x_QW8Wpu480WUExeyG0p-23" value="&lt;b&gt;Rk&lt;/b&gt;" style="ellipse;whiteSpace=wrap;html=1;aspect=fixed;fillColor=#b0e3e6;strokeColor=#0e8088;" vertex="1" parent="1">
          <mxGeometry x="580" y="260" width="40" height="40" as="geometry" />
        </mxCell>
        <mxCell id="x_QW8Wpu480WUExeyG0p-25" value="&lt;b&gt;R2&lt;/b&gt;" style="ellipse;whiteSpace=wrap;html=1;aspect=fixed;fillColor=#b0e3e6;strokeColor=#0e8088;" vertex="1" parent="1">
          <mxGeometry x="290" y="260" width="40" height="40" as="geometry" />
        </mxCell>
        <mxCell id="x_QW8Wpu480WUExeyG0p-26" value="" style="endArrow=classic;html=1;rounded=0;exitX=0.5;exitY=1;exitDx=0;exitDy=0;" edge="1" parent="1">
          <mxGeometry width="50" height="50" relative="1" as="geometry">
            <mxPoint x="309.5" y="200" as="sourcePoint" />
            <mxPoint x="309.5" y="260" as="targetPoint" />
          </mxGeometry>
        </mxCell>
        <mxCell id="x_QW8Wpu480WUExeyG0p-27" value="" style="endArrow=classic;html=1;rounded=0;exitX=0.5;exitY=1;exitDx=0;exitDy=0;" edge="1" parent="1">
          <mxGeometry width="50" height="50" relative="1" as="geometry">
            <mxPoint x="434.57" y="200" as="sourcePoint" />
            <mxPoint x="434.57" y="260" as="targetPoint" />
          </mxGeometry>
        </mxCell>
        <mxCell id="x_QW8Wpu480WUExeyG0p-28" value="" style="endArrow=classic;html=1;rounded=0;exitX=0.5;exitY=1;exitDx=0;exitDy=0;" edge="1" parent="1">
          <mxGeometry width="50" height="50" relative="1" as="geometry">
            <mxPoint x="599.5" y="200" as="sourcePoint" />
            <mxPoint x="599.5" y="260" as="targetPoint" />
          </mxGeometry>
        </mxCell>
        <mxCell id="x_QW8Wpu480WUExeyG0p-30" value="&lt;b&gt;Rf&lt;/b&gt;" style="ellipse;whiteSpace=wrap;html=1;aspect=fixed;fillColor=#bac8d3;strokeColor=#23445d;" vertex="1" parent="1">
          <mxGeometry x="375" y="450" width="40" height="40" as="geometry" />
        </mxCell>
        <mxCell id="x_QW8Wpu480WUExeyG0p-31" value="" style="endArrow=none;html=1;rounded=0;entryX=0.5;entryY=1;entryDx=0;entryDy=0;" edge="1" parent="1" target="x_QW8Wpu480WUExeyG0p-1">
          <mxGeometry width="50" height="50" relative="1" as="geometry">
            <mxPoint x="400" y="130" as="sourcePoint" />
            <mxPoint x="440" y="220" as="targetPoint" />
          </mxGeometry>
        </mxCell>
        <mxCell id="x_QW8Wpu480WUExeyG0p-32" value="&lt;font style=&quot;font-size: 16px;&quot;&gt;&lt;b&gt;Training&lt;/b&gt;&lt;/font&gt;" style="text;html=1;align=center;verticalAlign=middle;resizable=0;points=[];autosize=1;strokeColor=none;fillColor=none;" vertex="1" parent="1">
          <mxGeometry x="400" y="90" width="90" height="30" as="geometry" />
        </mxCell>
        <mxCell id="x_QW8Wpu480WUExeyG0p-35" value="" style="endArrow=classic;html=1;rounded=0;exitX=0.5;exitY=1;exitDx=0;exitDy=0;entryX=0.037;entryY=0.673;entryDx=0;entryDy=0;entryPerimeter=0;" edge="1" parent="1" source="x_QW8Wpu480WUExeyG0p-25" target="x_QW8Wpu480WUExeyG0p-33">
          <mxGeometry width="50" height="50" relative="1" as="geometry">
            <mxPoint x="189.5" y="300" as="sourcePoint" />
            <mxPoint x="312" y="355" as="targetPoint" />
          </mxGeometry>
        </mxCell>
        <mxCell id="x_QW8Wpu480WUExeyG0p-36" value="" style="endArrow=classic;html=1;rounded=0;exitX=0.5;exitY=1;exitDx=0;exitDy=0;entryX=0.05;entryY=0.918;entryDx=0;entryDy=0;entryPerimeter=0;" edge="1" parent="1" source="x_QW8Wpu480WUExeyG0p-21" target="x_QW8Wpu480WUExeyG0p-33">
          <mxGeometry width="50" height="50" relative="1" as="geometry">
            <mxPoint x="320" y="310" as="sourcePoint" />
            <mxPoint x="190" y="350" as="targetPoint" />
          </mxGeometry>
        </mxCell>
        <mxCell id="x_QW8Wpu480WUExeyG0p-37" value="" style="group" vertex="1" connectable="0" parent="1">
          <mxGeometry x="150" y="355" width="490" height="60.000000000000014" as="geometry" />
        </mxCell>
        <mxCell id="x_QW8Wpu480WUExeyG0p-40" value="" style="group" vertex="1" connectable="0" parent="x_QW8Wpu480WUExeyG0p-37">
          <mxGeometry y="-1.4210854715202004e-14" width="490" height="60.00000000000003" as="geometry" />
        </mxCell>
        <mxCell id="x_QW8Wpu480WUExeyG0p-33" value="" style="triangle;whiteSpace=wrap;html=1;rotation=90;fillColor=#d0cee2;strokeColor=#56517e;" vertex="1" parent="x_QW8Wpu480WUExeyG0p-40">
          <mxGeometry x="215" y="-215" width="60" height="490" as="geometry" />
        </mxCell>
        <mxCell id="x_QW8Wpu480WUExeyG0p-29" value="&lt;font style=&quot;font-size: 16px;&quot;&gt;&lt;b&gt;Max&lt;/b&gt;&lt;/font&gt;" style="text;html=1;align=center;verticalAlign=middle;resizable=0;points=[];autosize=1;strokeColor=none;fillColor=none;" vertex="1" parent="x_QW8Wpu480WUExeyG0p-40">
          <mxGeometry x="225" y="15.000000000000014" width="50" height="30" as="geometry" />
        </mxCell>
        <mxCell id="x_QW8Wpu480WUExeyG0p-38" value="" style="endArrow=classic;html=1;rounded=0;exitX=0.5;exitY=1;exitDx=0;exitDy=0;entryX=0.037;entryY=0.673;entryDx=0;entryDy=0;entryPerimeter=0;" edge="1" parent="1">
          <mxGeometry width="50" height="50" relative="1" as="geometry">
            <mxPoint x="599.5" y="300" as="sourcePoint" />
            <mxPoint x="599.5" y="357" as="targetPoint" />
          </mxGeometry>
        </mxCell>
        <mxCell id="x_QW8Wpu480WUExeyG0p-39" value="" style="endArrow=classic;html=1;rounded=0;exitX=0.5;exitY=1;exitDx=0;exitDy=0;entryX=0.037;entryY=0.673;entryDx=0;entryDy=0;entryPerimeter=0;" edge="1" parent="1">
          <mxGeometry width="50" height="50" relative="1" as="geometry">
            <mxPoint x="434.57" y="300" as="sourcePoint" />
            <mxPoint x="434.57" y="357" as="targetPoint" />
          </mxGeometry>
        </mxCell>
        <mxCell id="x_QW8Wpu480WUExeyG0p-41" value="" style="endArrow=classic;html=1;rounded=0;exitX=1;exitY=0.5;exitDx=0;exitDy=0;entryX=0.5;entryY=0;entryDx=0;entryDy=0;" edge="1" parent="1" source="x_QW8Wpu480WUExeyG0p-33" target="x_QW8Wpu480WUExeyG0p-30">
          <mxGeometry width="50" height="50" relative="1" as="geometry">
            <mxPoint x="444.57" y="310" as="sourcePoint" />
            <mxPoint x="444.57" y="367" as="targetPoint" />
          </mxGeometry>
        </mxCell>
      </root>
    </mxGraphModel>
  </diagram>
</mxfile>
